<?xml version="1.0" encoding="UTF-8"?>
<svg width="595px" height="595px" viewBox="0 0 595 595" version="1.1" xmlns="http://www.w3.org/2000/svg" xmlns:xlink="http://www.w3.org/1999/xlink">
    <!-- Generator: Sketch 52.5 (67469) - http://www.bohemiancoding.com/sketch -->
    <title>parnterships</title>
    <desc>Created with Sketch.</desc>
    <defs>
        <linearGradient x1="50%" y1="0%" x2="50%" y2="151.154296%" id="linearGradient-1">
            <stop stop-color="#807CF6" offset="0%"></stop>
            <stop stop-color="#025CDD" offset="100%"></stop>
        </linearGradient>
        <linearGradient x1="65.5524425%" y1="78.27402%" x2="238.285255%" y2="61.156112%" id="linearGradient-2">
            <stop stop-color="#025CDD" offset="0%"></stop>
            <stop stop-color="#55CFEA" offset="100%"></stop>
        </linearGradient>
        <linearGradient x1="73.0612828%" y1="78.9445686%" x2="43.6606089%" y2="-21.0047902%" id="linearGradient-3">
            <stop stop-color="#ED466F" offset="0%"></stop>
            <stop stop-color="#FAD165" offset="100%"></stop>
        </linearGradient>
        <linearGradient x1="93.615723%" y1="50%" x2="-9.64155221%" y2="14.6498723%" id="linearGradient-4">
            <stop stop-color="#F4A440" offset="0%"></stop>
            <stop stop-color="#FAD165" offset="100%"></stop>
        </linearGradient>
        <linearGradient x1="100%" y1="100%" x2="7.55356704%" y2="33.5449493%" id="linearGradient-5">
            <stop stop-color="#4DB7BF" offset="0%"></stop>
            <stop stop-color="#6CF4E1" offset="100%"></stop>
        </linearGradient>
        <linearGradient x1="50%" y1="0%" x2="45.8430277%" y2="50%" id="linearGradient-6">
            <stop stop-color="#6CF4E1" offset="0%"></stop>
            <stop stop-color="#359EF6" offset="100%"></stop>
        </linearGradient>
        <linearGradient x1="39.087066%" y1="8.53663194%" x2="50%" y2="46.062934%" id="linearGradient-7">
            <stop stop-color="#FFFFFF" offset="0%"></stop>
            <stop stop-color="#979797" stop-opacity="0" offset="100%"></stop>
        </linearGradient>
        <path d="M297.5,595 C133.195287,595 0,461.804713 0,297.5 C0,133.195287 133.195287,-1.13686838e-13 297.5,-1.13686838e-13 C461.804713,-1.13686838e-13 595,133.195287 595,297.5 C595,461.804713 461.804713,595 297.5,595 Z M297.5,591.748634 C460.009033,591.748634 591.748634,460.009033 591.748634,297.5 C591.748634,134.990967 460.009033,3.25136612 297.5,3.25136612 C134.990967,3.25136612 3.25136612,134.990967 3.25136612,297.5 C3.25136612,460.009033 134.990967,591.748634 297.5,591.748634 Z" id="path-8"></path>
        <linearGradient x1="0%" y1="36.1618441%" x2="100%" y2="95.7505787%" id="linearGradient-10">
            <stop stop-color="#FF9999" offset="0%"></stop>
            <stop stop-color="#FF6868" offset="100%"></stop>
        </linearGradient>
        <linearGradient x1="50%" y1="100%" x2="50%" y2="0.384646046%" id="linearGradient-11">
            <stop stop-color="#FF907D" offset="0%"></stop>
            <stop stop-color="#FFC65E" offset="100%"></stop>
        </linearGradient>
        <linearGradient x1="-67.0084635%" y1="0.285630417%" x2="50%" y2="0.285630417%" id="linearGradient-12">
            <stop stop-color="#FFAA85" offset="0%"></stop>
            <stop stop-color="#FF5FA2" offset="100%"></stop>
        </linearGradient>
        <linearGradient x1="94.7151217%" y1="72.6278024%" x2="27.0367742%" y2="100%" id="linearGradient-13">
            <stop stop-color="#C7FF76" offset="0%"></stop>
            <stop stop-color="#00AAA4" offset="100%"></stop>
            <stop stop-color="#00AAA4" offset="100%"></stop>
        </linearGradient>
        <linearGradient x1="50%" y1="0%" x2="50%" y2="100%" id="linearGradient-14">
            <stop stop-color="#58A7FF" offset="0%"></stop>
            <stop stop-color="#1F84D8" offset="100%"></stop>
        </linearGradient>
        <polygon id="path-15" points="0 0 122 0 122 116.344371 0 116.344371"></polygon>
    </defs>
    <g id="Details" stroke="none" stroke-width="1" fill="none" fill-rule="evenodd">
        <g id="Home" transform="translate(-362.000000, -9578.000000)">
            <g id="Partnerships" transform="translate(189.000000, 9578.000000)">
                <g id="parnterships" transform="translate(173.000000, 0.000000)">
                    <g id="Group-Copy">
                        <path d="M297.794114,54 L297.794114,99.5466921 C188.286003,99.6578855 99.5466667,188.46583 99.5466667,297.999961 C99.5466667,407.602728 188.39725,496.453326 298,496.453326 C407.60275,496.453326 496.453333,407.602728 496.453333,297.999961 C496.453333,261.628878 486.669035,227.543042 469.588958,198.230972 L509.314558,175.926351 C530.101647,211.832133 542,253.526542 542,297.999961 C542,432.757461 432.757479,542 298,542 C163.242521,542 54,432.757461 54,297.999961 C54,163.311095 163.13127,54.1112075 297.794114,54.0000061 Z" id="Combined-Shape" fill="url(#linearGradient-1)"></path>
                        <path d="M86.6597793,175 L126,197.866441 C109.124808,227.092852 99.4656619,261.030625 99.4656619,297.230292 C99.4656619,333.291333 109.05097,367.10777 125.806447,396.258169 L86.3943294,419 C65.7883113,383.156146 54,341.573461 54,297.230292 C54,252.69706 65.8895818,210.948027 86.6597793,175 Z" id="Combined-Shape" fill="url(#linearGradient-2)"></path>
                        <path d="M86,418.411605 L125.520749,396 C159.605999,455.412171 223.621626,495.459529 297,495.573573 L297,541 C206.683923,540.885838 127.895805,491.567898 86,418.411605 Z" id="Combined-Shape" fill="url(#linearGradient-3)"></path>
                        <path d="M297,540.999772 L297,495.584941 C297.112243,495.585107 297.224507,495.585201 297.336793,495.585201 C370.464576,495.585201 434.331304,455.950723 468.610131,397 L508,419.648879 C465.873619,492.206413 387.305799,541 297.336793,541 C297.224511,541 297.112247,540.999924 297,540.999772 Z" id="Combined-Shape" fill="url(#linearGradient-4)"></path>
                        <path d="M508.435601,420 L469.193933,397.235194 C486.043288,368.04041 495.689059,334.130583 495.689059,297.958284 C495.689059,261.647433 485.969254,227.616418 469,198.346104 L473.188468,195.901404 L508.48372,176 C529.163227,211.871861 541,253.52688 541,297.958284 C541,342.424138 529.144864,384.109302 508.435601,420 Z" id="Combined-Shape" fill="url(#linearGradient-5)"></path>
                        <path d="M297.5,31.5000601 L297.5,98.9234103 C297.560284,98.9233567 297.620571,98.9233299 297.68086,98.9233299 C369.510374,98.9233299 434.655088,137.297089 470.040165,198.315912 L528.31713,164.446507 C480.943249,82.8197329 393.780751,31.5 297.68086,31.5 C297.620571,31.5 297.560285,31.50002 297.5,31.5000601 Z" id="Combined-Shape" stroke="url(#linearGradient-7)" fill="url(#linearGradient-6)"></path>
                        <g id="Path-46">
                            <mask id="mask-9" fill="white">
                                <use xlink:href="#path-8"></use>
                            </mask>
                            <use id="Mask" fill="#979797" fill-rule="nonzero" xlink:href="#path-8"></use>
                            <path d="M297.88064,297.2865 L595.406094,124.73181 L595.406094,-59.5714837 L297.88064,-54.2528902 L297.88064,297.2865 Z" stroke="url(#linearGradient-7)" fill="url(#linearGradient-6)" mask="url(#mask-9)"></path>
                            <polygon id="Path-47" stroke="#979797" fill="url(#linearGradient-10)" mask="url(#mask-9)" points="298.941126 296.970283 613.590885 113.409878 613.590885 480.305586"></polygon>
                            <polygon id="Path-2" fill="url(#linearGradient-11)" mask="url(#mask-9)" points="298.755682 297.749217 665.446639 510.769704 298.755682 653.151817"></polygon>
                            <polygon id="Path-3" fill="url(#linearGradient-12)" mask="url(#mask-9)" points="298.431344 298.222106 298.431344 649.240173 3.87738671 649.240173 8.85081588 466.839027"></polygon>
                            <polygon id="Path-4" fill="url(#linearGradient-13)" mask="url(#mask-9)" points="-22.271193 109.960622 297.151119 297.568726 -35.8736085 486.774957"></polygon>
                            <polygon id="Path-5" fill="url(#linearGradient-14)" mask="url(#mask-9)" points="297.005082 296.069439 -22.0717623 113.091809 297.005082 -78.8433145"></polygon>
                        </g>
                        <polygon id="Rectangle-2" fill="#172E61" points="301 493 301 595 294 595 294 493"></polygon>
                        <polygon id="Rectangle-2-Copy-3" fill="#172E61" points="294 0 301 0 301 102 294 101.826401"></polygon>
                        <polygon id="Rectangle-2-Copy" fill="#172E61" transform="translate(511.165003, 421.115334) rotate(-240.000000) translate(-511.165003, -421.115334) " points="508.135155 370.41116 514.637887 370.41116 514.194852 471.819508 507.692119 471.637401"></polygon>
                        <polygon id="Rectangle-2-Copy-5" fill="#172E61" transform="translate(84.231156, 175.705917) rotate(-240.000000) translate(-84.231156, -175.705917) " points="86.3248703 123.73178 88.6401741 227.680054 82.1374418 227.680054 79.8221381 124.617391"></polygon>
                        <polygon id="Rectangle-2-Copy-2" fill="#172E61" transform="translate(511.152241, 173.763066) rotate(-300.000000) translate(-511.152241, -173.763066) " points="507.567667 122.776345 514.070399 122.776345 514.736815 224.10298 508.234082 224.749787"></polygon>
                        <polygon id="Rectangle-2-Copy-4" fill="#172E61" transform="translate(83.757084, 421.080119) rotate(-300.000000) translate(-83.757084, -421.080119) " points="86.8563858 370.278063 87.1605136 471.992973 80.6577813 471.992973 80.3536536 370.167264"></polygon>
                        <path d="M298,516 C177.601925,516 80,418.398075 80,298 C80,177.601925 177.601925,80 298,80 C418.398075,80 516,177.601925 516,298 C516,418.398075 418.398075,516 298,516 Z M298,496.477612 C407.616158,496.477612 496.477612,407.616158 496.477612,298 C496.477612,188.383842 407.616158,99.5223881 298,99.5223881 C188.383842,99.5223881 99.5223881,188.383842 99.5223881,298 C99.5223881,407.616158 188.383842,496.477612 298,496.477612 Z" id="Combined-Shape-Copy" fill="#1A3876"></path>
                        <path d="M297.5,509 C180.691775,509 86,414.308225 86,297.5 C86,180.691775 180.691775,86 297.5,86 C414.308225,86 509,180.691775 509,297.5 C509,414.308225 414.308225,509 297.5,509 Z M299.126923,494.357692 C406.9499,494.357692 494.357692,406.9499 494.357692,299.126923 C494.357692,191.303947 406.9499,103.896154 299.126923,103.896154 C191.303947,103.896154 103.896154,191.303947 103.896154,299.126923 C103.896154,406.9499 191.303947,494.357692 299.126923,494.357692 Z" id="Combined-Shape" fill="#142D61"></path>
                    </g>
                    <g id="syscoin" transform="translate(237.000000, 239.000000)">
                        <mask id="mask-16" fill="white">
                            <use xlink:href="#path-15"></use>
                        </mask>
                        <g id="Clip-2"></g>
                        <path d="M106.641497,99.0458153 C103.372242,101.85615 99.6548206,104.415761 95.5678503,106.649007 C96.3267368,106.052346 93.9473948,103.57631 94.6672407,102.941036 C112.689593,87.4389676 116.811325,67.4846897 109.534251,49.9292202 C108.552351,47.5600332 110.620437,46.6116179 110.631133,44.4370861 C127.231977,59.9513203 125.441454,82.8767354 106.641497,99.0458153" id="Fill-1" fill="#219CC6" mask="url(#mask-16)"></path>
                        <path d="M110.474507,44.2045116 C104.427047,38.4765867 95.9452055,33.7552494 84.9318198,30.73655 C84.8829729,30.7227247 84.8383735,30.7152803 84.7900576,30.7019868 C84.8415592,30.7163438 84.8904061,30.7259151 84.9419077,30.7402722 C88.558172,31.6915586 88.8395727,35.8816857 91.3286414,37.9969554 C96.6587952,42.5268656 98.1135836,48.3271075 98.6620495,55.9884463 C99.4786424,67.3879316 99.4143981,78.6645844 91.1013971,88.707064 C86.7375627,93.9776908 81.2274187,98.7697498 74.7143202,101.583729 C74.2364699,101.798552 73.7580888,102.013376 73.2616555,102.21597 C73.1846685,102.235644 73.1267955,102.274461 73.0492776,102.293604 C69.9193587,103.551174 66.4416709,104.576904 62.5965695,105.292629 C49.1105743,107.847118 31.277204,106.783102 9.69536424,99.9135269 C18.3125966,106.569873 27.5478485,111.001411 36.8606184,113.555368 C47.0621897,116.361371 57.3603929,116.941501 67.0984495,115.780709 C67.1175635,115.780709 67.1563225,115.780709 67.1754365,115.761566 C68.6249155,115.606297 70.0547496,115.3936 71.4649387,115.142086 C77.1258709,114.155173 82.5553114,112.568455 87.598224,110.517526 L87.617338,110.517526 C90.3612602,109.395019 93.0080195,108.137449 95.5199188,106.744285 C96.2733293,106.14448 97.0267399,105.525 97.7419224,104.886378 C118.048433,87.2001072 122.646945,63.2063124 110.474507,44.2045116" id="Fill-3" fill="#007FBA" mask="url(#mask-16)"></path>
                        <path d="M72.7537101,102.609272 C98.1860146,92.2683361 99.5523588,66.0675257 70.0017549,51.316886 C48.5341497,40.5999748 58.0161391,23.5876059 84.5279251,30.8256733 C114.142752,38.5865819 105.382201,90.0509336 72.7537101,102.609272" id="Fill-4" fill="#1A6DA1" mask="url(#mask-16)"></path>
                        <path d="M112.304636,17.1338917 C84.4897818,8.36548195 62.912056,9.12214407 48.7524059,14.7715007 C48.6820924,14.7963179 48.6123116,14.8216632 48.5425308,14.8533448 C27.4937544,23.3577412 23.0070065,42.7046359 39.0097229,57.3642384 C34.7925102,53.8982718 29.9802959,50.2121181 27.8980571,45.524826 C25.2383952,39.5396444 24.4372473,32.1335433 25.5026036,25.9065256 C26.9424325,17.4866135 32.3128935,9.89253488 41.1489583,5.25170908 C44.6667647,3.40414401 49.962118,2.08249342 54.7258585,1.37176962 C73.4340472,-0.842245919 94.2154191,3.27213736 112.304636,17.1338917" id="Fill-5" fill="#219CC6" mask="url(#mask-16)"></path>
                        <path d="M43.7222465,86.9346646 C41.8967926,86.345601 39.8432234,86.0659017 38.1570846,85.3904915 C16.709995,76.7998037 5.25477975,60.8161555 5.66634437,45.0438709 C5.95933159,33.8362997 12.5544685,22.4862302 23.3540518,13.1295477 C26.4115409,10.4867074 30.4378552,8.25282133 34.1467224,6.05760579 C34.1562937,6.04860032 34.1653332,6.04860032 34.1743727,6.04860032 C39.2237495,3.99959123 44.6586358,2.42681253 50.3322721,1.43885959 C51.77328,1.19200379 53.2328987,0.981699601 54.7111282,0.80794702 C52.9670301,1.07281376 51.3143908,1.41131345 49.7447025,1.85046251 C21.9922727,9.36844003 20.3300621,41.5433921 39.0216894,56.9819446 C39.0216894,56.9819446 39.0307289,56.9819446 39.0403002,56.99095 C42.2716674,59.9632846 46.3389255,62.7528611 51.2686614,65.2039379 C70.6116668,74.8530332 64.6631223,89.6325972 43.7222465,86.9346646" id="Fill-6" fill="#007FBA" mask="url(#mask-16)"></path>
                        <path d="M43.6291391,87.2582781 C41.4966814,86.9841556 39.1999031,86.5274612 36.7653075,85.8601475 C-4.22473738,74.6772187 -10.2372821,39.9218701 15.2223436,17.8200805 C20.4753029,13.2610738 26.8906981,9.378377 34.083701,6.46357616 C30.3864869,8.65655631 26.9733885,11.0956117 23.9255059,13.73629 C-3.18156644,37.2721955 2.21769125,73.873373 43.6291391,87.2582781" id="Fill-7" fill="#1A6DA1" mask="url(#mask-16)"></path>
                    </g>
                </g>
            </g>
        </g>
    </g>
</svg>