<svg xmlns="http://www.w3.org/2000/svg" xmlns:xlink="http://www.w3.org/1999/xlink" width="34" height="34" viewBox="0 0 34 34"><defs><path id="oz7fa" d="M337 2193v-34h34v34zm17-2c8.284 0 15-6.716 15-15 0-8.284-6.716-15-15-15-8.284 0-15 6.716-15 15 0 8.284 6.716 15 15 15z"/><path id="oz7fb" d="M339 2176c0-8.284 6.716-15 15-15 8.284 0 15 6.716 15 15 0 8.284-6.716 15-15 15-8.284 0-15-6.716-15-15z"/><path id="oz7fd" d="M350 2176a4 4 0 1 1 8 0 4 4 0 0 1-8 0z"/><clipPath id="oz7fc"><use fill="#fff" xlink:href="#oz7fa"/></clipPath><linearGradient id="oz7fe" x1="350" x2="362.16" y1="2176" y2="2174.26" gradientUnits="userSpaceOnUse"><stop offset="0" stop-color="#359ef6"/><stop offset="1" stop-color="#025cdd"/></linearGradient></defs><g><g transform="translate(-337 -2159)"><g><use fill="#fff" fill-opacity="0" stroke="url(#oz7fe)" stroke-dasharray="5 5" stroke-miterlimit="50" stroke-width="4" clip-path="url(&quot;#oz7fc&quot;)" xlink:href="#oz7fb"/></g><g><use fill="url(#oz7fe)" xlink:href="#oz7fd"/></g></g></g></svg>
