<svg xmlns="http://www.w3.org/2000/svg" xmlns:xlink="http://www.w3.org/1999/xlink" width="34" height="34" viewBox="0 0 34 34"><defs><path id="ufsfa" d="M337 2300v-34h34v34zm17-2c8.284 0 15-6.716 15-15 0-8.284-6.716-15-15-15-8.284 0-15 6.716-15 15 0 8.284 6.716 15 15 15z"/><path id="ufsfb" d="M339 2283c0-8.284 6.716-15 15-15 8.284 0 15 6.716 15 15 0 8.284-6.716 15-15 15-8.284 0-15-6.716-15-15z"/><path id="ufsfd" d="M350 2283a4 4 0 1 1 8 0 4 4 0 0 1-8 0z"/><clipPath id="ufsfc"><use fill="#fff" xlink:href="#ufsfa"/></clipPath><linearGradient id="ufsfe" x1="350" x2="358.16" y1="2279" y2="2287.08" gradientUnits="userSpaceOnUse"><stop offset="0" stop-color="#8e2eff"/><stop offset="1" stop-color="#e024ff"/></linearGradient></defs><g><g transform="translate(-337 -2266)"><g><use fill="#fff" fill-opacity="0" stroke="url(#ufsfe)" stroke-dasharray="5 5" stroke-miterlimit="50" stroke-width="4" clip-path="url(&quot;#ufsfc&quot;)" xlink:href="#ufsfb"/></g><g><use fill="url(#ufsfe)" xlink:href="#ufsfd"/></g></g></g></svg>
