<svg xmlns="http://www.w3.org/2000/svg" xmlns:xlink="http://www.w3.org/1999/xlink" viewBox="0 0 60 60"><defs><path id="w6bba" d="M930 2763v-60h60v60zm30-5c13.807 0 25-11.193 25-25s-11.193-25-25-25-25 11.193-25 25 11.193 25 25 25z"/><path id="w6bbb" d="M935 2733c0-13.807 11.193-25 25-25s25 11.193 25 25-11.193 25-25 25-25-11.193-25-25z"/><path id="w6bbd" d="M956 2733a4 4 0 1 1 8 0 4 4 0 0 1-8 0z"/><clipPath id="w6bbc"><use fill="#fff" xlink:href="#w6bba"/></clipPath><linearGradient id="w6bbe" x1="956" x2="976.32" y1="2733" y2="2730.75" gradientUnits="userSpaceOnUse"><stop offset="0" stop-color="#359ef6"/><stop offset="1" stop-color="#025cdd"/></linearGradient></defs><g><g transform="translate(-930 -2703)"><use fill="#fff" fill-opacity="0" stroke="url(#w6bbe)" stroke-miterlimit="50" stroke-width="10" clip-path="url(&quot;#w6bbc&quot;)" xlink:href="#w6bbb"/></g><g transform="translate(-930 -2703)"><g><use fill="url(#w6bbe)" xlink:href="#w6bbd"/></g></g></g></svg>
