<svg xmlns="http://www.w3.org/2000/svg" xmlns:xlink="http://www.w3.org/1999/xlink" width="34" height="34" viewBox="0 0 34 34"><defs><path id="kfepa" d="M337 2116v-34h34v34zm17-2c8.284 0 15-6.716 15-15 0-8.284-6.716-15-15-15-8.284 0-15 6.716-15 15 0 8.284 6.716 15 15 15z"/><path id="kfepb" d="M339 2099c0-8.284 6.716-15 15-15 8.284 0 15 6.716 15 15 0 8.284-6.716 15-15 15-8.284 0-15-6.716-15-15z"/><path id="kfepd" d="M350 2099a4 4 0 1 1 8 0 4 4 0 0 1-8 0z"/><clipPath id="kfepc"><use fill="#fff" xlink:href="#kfepa"/></clipPath><linearGradient id="kfepe" x1="356.76" x2="351.59" y1="2095.61" y2="2102.7" gradientUnits="userSpaceOnUse"><stop offset="0" stop-color="#f954b4"/><stop offset="1" stop-color="#f7266a"/></linearGradient></defs><g><g transform="translate(-337 -2082)"><g><use fill="#fff" fill-opacity="0" stroke="url(#kfepe)" stroke-dasharray="5 5" stroke-miterlimit="50" stroke-width="4" clip-path="url(&quot;#kfepc&quot;)" xlink:href="#kfepb"/></g><g><use fill="url(#kfepe)" xlink:href="#kfepd"/></g></g></g></svg>
