<svg xmlns="http://www.w3.org/2000/svg" xmlns:xlink="http://www.w3.org/1999/xlink" width="34" height="34" viewBox="0 0 34 34"><defs><path id="5l16a" d="M337 2039v-34h34v34zm17-2c8.284 0 15-6.716 15-15 0-8.284-6.716-15-15-15-8.284 0-15 6.716-15 15 0 8.284 6.716 15 15 15z"/><path id="5l16b" d="M339 2022c0-8.284 6.716-15 15-15 8.284 0 15 6.716 15 15 0 8.284-6.716 15-15 15-8.284 0-15-6.716-15-15z"/><path id="5l16d" d="M350 2022a4 4 0 1 1 8 0 4 4 0 0 1-8 0z"/><clipPath id="5l16c"><use fill="#fff" xlink:href="#5l16a"/></clipPath><linearGradient id="5l16e" x1="356.76" x2="351.59" y1="2018.61" y2="2025.7" gradientUnits="userSpaceOnUse"><stop offset="0" stop-color="#f9c454"/><stop offset="1" stop-color="#f77b26"/></linearGradient></defs><g><g transform="translate(-337 -2005)"><g><use fill="#fff" fill-opacity="0" stroke="url(#5l16e)" stroke-dasharray="5 5" stroke-miterlimit="50" stroke-width="4" clip-path="url(&quot;#5l16c&quot;)" xlink:href="#5l16b"/></g><g><use fill="url(#5l16e)" xlink:href="#5l16d"/></g></g></g></svg>
