<svg xmlns="http://www.w3.org/2000/svg" xmlns:xlink="http://www.w3.org/1999/xlink" viewBox="0 0 60 60"><defs><path id="rcoja" d="M930 1390v-60h60v60zm30-5c13.807 0 25-11.193 25-25s-11.193-25-25-25-25 11.193-25 25 11.193 25 25 25z"/><path id="rcojb" d="M935 1360c0-13.807 11.193-25 25-25s25 11.193 25 25-11.193 25-25 25-25-11.193-25-25z"/><path id="rcojd" d="M956 1360a4 4 0 1 1 8 0 4 4 0 0 1-8 0z"/><clipPath id="rcojc"><use fill="#fff" xlink:href="#rcoja"/></clipPath><linearGradient id="rcoje" x1="956" x2="964.16" y1="1356" y2="1364.08" gradientUnits="userSpaceOnUse"><stop offset="0" stop-color="#8e2eff"/><stop offset="1" stop-color="#e024ff"/></linearGradient></defs><g><g transform="translate(-930 -1330)"><use fill="#fff" fill-opacity="0" stroke="url(#rcoje)" stroke-miterlimit="50" stroke-width="10" clip-path="url(&quot;#rcojc&quot;)" xlink:href="#rcojb"/></g><g transform="translate(-930 -1330)"><g><use fill="url(#rcoje)" xlink:href="#rcojd"/></g></g></g></svg>
